<svg data-v-fde0c5aa="" xmlns="http://www.w3.org/2000/svg" viewBox="40 40 300 300" class="iconLeftSlogan"><!----><defs data-v-fde0c5aa=""><!----></defs><rect data-v-fde0c5aa="" fill="#E1F0F0" x="0" y="0" width="300px" height="300px" class="logo-background-square"></rect><defs data-v-fde0c5aa=""><!----></defs><g data-v-fde0c5aa="" id="332cd44d-5668-4ad5-9d51-96bc0e4701f1" fill="#10312F" transform="matrix(1.675864110695347,0,0,1.675864110695347,99.68682943767118,130.96709259843018)"><path d="M6.22 1.29L6.80 2.91L7.39 2.80L7.39 0.70L0.60 0.70L0.49 1.29L1.71 1.75L1.71 9.45L0.52 9.91L0.62 10.50L7.64 10.50L7.64 7.91L7.06 7.81L6.29 9.91L3.19 9.91L3.19 5.60L4.90 5.60L5.33 6.78L5.92 6.68L5.92 3.92L5.33 3.82L4.90 5.00L3.19 5.00L3.19 1.29ZM14.70 0.70C14.70 0.70 14.71 0.04 13.94 0.04C13.48 0.04 12.87 0.14 12.54 0.20L12.54 0.70L13.38 0.70L13.38 3.81L13.71 5.28C13.40 4.45 12.61 3.81 11.55 3.81C9.63 3.81 8.62 5.46 8.62 7.53C8.62 9.62 9.66 10.65 11.69 10.65C12.38 10.65 13.09 10.28 13.41 9.60C13.61 10.39 14.21 10.65 14.70 10.65C14.97 10.65 15.25 10.61 15.47 10.50L15.47 10.00C15.04 10.00 14.70 9.79 14.70 9.35ZM11.89 10.12C10.71 10.12 10.08 9.24 10.08 7.56C10.08 5.88 10.54 4.47 11.75 4.47C12.38 4.47 13.38 5.11 13.38 6.92L13.38 7.77C13.38 9.37 12.59 10.12 11.89 10.12ZM19.38 10.12C18.54 10.12 18.00 9.49 18.00 8.43L18.00 4.47C18.00 4.47 18.02 3.81 17.25 3.81C16.79 3.81 16.28 3.92 15.96 3.96L15.96 4.47L16.69 4.47L16.69 8.15C16.69 9.83 17.56 10.65 19.08 10.65C19.80 10.65 20.48 10.26 20.87 9.60C21.07 10.39 21.70 10.65 22.19 10.65C22.46 10.65 22.74 10.61 22.96 10.50L22.96 10.00C22.53 10.00 22.13 9.79 22.13 9.35L22.13 3.96L21.64 3.81L20.82 3.96L20.82 7.73C20.82 9.32 20.01 10.12 19.38 10.12ZM26.39 10.65C27.08 10.65 27.79 10.28 28.11 9.60C28.31 10.39 28.85 10.65 29.34 10.65C29.61 10.65 29.89 10.61 30.11 10.50L30.11 10.00C29.68 10.00 29.34 9.79 29.34 9.35L29.34 3.96L28.85 3.81L28.03 4.03C27.68 3.85 27.23 3.81 26.81 3.81C25.05 3.81 23.60 4.90 23.60 7.57C23.60 9.83 25.02 10.65 26.39 10.65ZM28.03 7.77C28.03 9.37 27.23 10.00 26.53 10.00C25.76 10.00 24.96 9.45 24.96 7.50C24.96 5.08 25.98 4.33 26.88 4.33C27.30 4.33 27.58 4.40 28.03 4.65ZM31.65 4.47L31.65 10.50L32.97 10.50L32.97 7.39C32.97 5.42 34.09 4.47 34.76 4.47L35.15 5.36C35.60 5.36 35.95 5.04 35.95 4.62C35.95 4.20 35.69 3.81 34.96 3.81C34.23 3.81 33.33 4.42 32.97 5.43L32.97 4.66C32.97 4.66 32.98 3.81 32.21 3.81C31.75 3.81 31.19 3.91 30.87 3.96L30.87 4.47ZM42.66 0.70C42.66 0.70 42.67 0.04 41.90 0.04C41.44 0.04 40.82 0.14 40.50 0.20L40.50 0.70L41.34 0.70L41.34 3.81L41.66 5.28C41.36 4.45 40.57 3.81 39.51 3.81C37.59 3.81 36.58 5.46 36.58 7.53C36.58 9.62 37.62 10.65 39.65 10.65C40.33 10.65 41.05 10.28 41.37 9.60C41.57 10.39 42.17 10.65 42.66 10.65C42.92 10.65 43.20 10.61 43.43 10.50L43.43 10.00C42.99 10.00 42.66 9.79 42.66 9.35ZM39.84 10.12C38.67 10.12 38.04 9.24 38.04 7.56C38.04 5.88 38.50 4.47 39.70 4.47C40.33 4.47 41.34 5.11 41.34 6.92L41.34 7.77C41.34 9.37 40.54 10.12 39.84 10.12ZM47.35 3.81C45.28 3.81 44.06 5.12 44.06 7.22C44.06 9.32 45.14 10.65 47.35 10.65C49.57 10.65 50.64 9.38 50.64 7.22C50.64 5.07 49.42 3.81 47.35 3.81ZM47.35 4.33C48.52 4.33 49.28 5.39 49.28 7.18C49.28 8.96 48.54 10.14 47.35 10.14C46.16 10.14 45.42 8.95 45.42 7.18C45.42 5.42 46.19 4.33 47.35 4.33ZM60.31 0.46C57.18 0.46 55.19 2.73 55.19 5.60C55.19 8.19 56.67 10.74 60.31 10.74C61.46 10.74 62.69 10.42 63.39 9.91L63.39 6.96L64.61 6.48L64.50 5.89L60.79 5.89L60.69 6.48L61.89 6.96L61.89 9.72C61.38 9.84 60.75 9.91 60.30 9.91C57.53 9.91 56.83 7.69 56.83 5.53C56.83 3.26 57.76 1.15 60.31 1.15C60.73 1.15 61.38 1.22 61.85 1.32L62.29 3.15C62.97 3.15 63.53 2.73 63.53 2.04C63.53 0.66 61.38 0.46 60.31 0.46ZM68.18 10.65C68.87 10.65 69.58 10.28 69.90 9.60C70.10 10.39 70.64 10.65 71.13 10.65C71.40 10.65 71.68 10.61 71.90 10.50L71.90 10.00C71.47 10.00 71.13 9.79 71.13 9.35L71.13 3.96L70.64 3.81L69.82 4.03C69.47 3.85 69.02 3.81 68.60 3.81C66.84 3.81 65.39 4.90 65.39 7.57C65.39 9.83 66.81 10.65 68.18 10.65ZM69.82 7.77C69.82 9.37 69.02 10.00 68.32 10.00C67.55 10.00 66.75 9.45 66.75 7.50C66.75 5.08 67.77 4.33 68.67 4.33C69.09 4.33 69.37 4.40 69.82 4.65ZM73.44 4.47L73.44 10.50L74.76 10.50L74.76 7.39C74.76 5.42 75.88 4.47 76.55 4.47L76.94 5.36C77.39 5.36 77.74 5.04 77.74 4.62C77.74 4.20 77.48 3.81 76.75 3.81C76.02 3.81 75.12 4.42 74.76 5.43L74.76 4.66C74.76 4.66 74.77 3.81 74.00 3.81C73.54 3.81 72.98 3.91 72.66 3.96L72.66 4.47ZM83.24 5.64C83.64 5.64 83.96 5.32 83.96 4.94C83.96 4.16 82.95 3.81 81.91 3.81C79.73 3.81 78.32 5.07 78.32 7.24C78.32 9.31 79.41 10.65 81.89 10.65C82.80 10.65 83.54 10.37 84.14 9.83L83.82 9.37C83.24 9.73 82.70 10.00 81.97 10.00C80.22 10.00 79.79 8.64 79.79 6.96C79.79 5.31 80.56 4.33 81.96 4.33C82.35 4.33 82.56 4.40 82.81 4.49ZM87.25 4.47C87.25 4.47 87.26 3.81 86.49 3.81C86.03 3.81 85.41 3.91 85.09 3.96L85.09 4.47L85.93 4.47L85.93 10.50L87.25 10.50ZM86.02 2.45L86.30 2.59L88.21 0.35L86.97 0.21ZM91.94 10.65C92.62 10.65 93.34 10.28 93.66 9.60C93.86 10.39 94.40 10.65 94.89 10.65C95.16 10.65 95.44 10.61 95.66 10.50L95.66 10.00C95.23 10.00 94.89 9.79 94.89 9.35L94.89 3.96L94.40 3.81L93.58 4.03C93.23 3.85 92.78 3.81 92.36 3.81C90.59 3.81 89.15 4.90 89.15 7.57C89.15 9.83 90.57 10.65 91.94 10.65ZM93.58 7.77C93.58 9.37 92.78 10.00 92.08 10.00C91.31 10.00 90.51 9.45 90.51 7.50C90.51 5.08 91.53 4.33 92.43 4.33C92.85 4.33 93.13 4.40 93.58 4.65Z"></path></g><defs data-v-fde0c5aa=""><linearGradient data-v-fde0c5aa="" gradientTransform="rotate(25)" id="951c680e-add8-451b-b7ba-735e222bcdbf" x1="0%" y1="0%" x2="100%" y2="0%"><stop data-v-fde0c5aa="" offset="0%" stop-color="#01648B" stop-opacity="1"></stop><stop data-v-fde0c5aa="" offset="100%" stop-color="#5BD0A4" stop-opacity="1"></stop></linearGradient></defs><g data-v-fde0c5aa="" id="0f027eb0-12c5-46cb-b71e-58dcc8c7c0ef" stroke="none" fill="url(#951c680e-add8-451b-b7ba-735e222bcdbf)" transform="matrix(1.1311429254260523,0,0,1.1311429254260523,36.60657122372184,122.85256978977475)"><g transform="translate(-116)"><circle cx="123" cy="40" r="4"></circle><path d="M161 37.5a1 1 0 0 0-1-1h-30a1 1 0 0 0-1 1v5a1 1 0 0 0 1 1h30a1 1 0 0 0 1-1v-5z"></path><circle cx="123" cy="24" r="4"></circle><path d="M161 21.5a1 1 0 0 0-1-1h-30a1 1 0 0 0-1 1v5a1 1 0 0 0 1 1h30a1 1 0 0 0 1-1v-5z"></path><circle cx="123" cy="8" r="4"></circle><path d="M161 5.5a1 1 0 0 0-1-1h-30a1 1 0 0 0-1 1v5a1 1 0 0 0 1 1h30a1 1 0 0 0 1-1v-5z"></path></g></g><defs data-v-fde0c5aa=""><!----></defs><g data-v-fde0c5aa="" id="1ed45082-6bcf-498b-8b6b-b10574dafb5e" fill="#10312F" transform="matrix(0.8803444209530529,0,0,0.8803444209530529,100.11184786272354,158.17356282205594)"><path d="M0.45 12.46C0.45 12.63 0.46 12.70 0.64 12.70C0.80 12.70 2.03 12.64 2.42 12.64C3.28 12.64 4.16 12.70 5.01 12.70C7.63 12.70 10.02 11.07 10.02 7.91C10.02 4.89 7.69 3.07 4.65 3.07C4.09 3.07 2.83 3.23 1.79 3.23C1.32 3.23 0.85 3.22 0.80 3.22C0.62 3.22 0.60 3.32 0.60 3.49C0.60 3.68 0.67 3.70 0.80 3.70L1.76 3.67C1.79 3.67 1.79 4.20 1.79 4.72C1.79 5.91 1.71 12.21 1.62 12.21L0.73 12.21C0.55 12.21 0.45 12.22 0.45 12.46ZM3.02 11.40C3.02 9.46 3.02 7.52 3.04 5.60C3.04 5.03 3.08 3.61 3.12 3.60C3.42 3.53 4.00 3.51 4.35 3.51C6.92 3.51 8.53 5.75 8.53 7.73C8.53 8.95 8.48 12.25 3.81 12.25C3.54 12.25 3.14 12.25 3.04 12.21C3.02 12.19 3.02 11.79 3.02 11.40ZM17.99 12.39C17.99 12.63 18.03 12.68 18.23 12.68C18.55 12.68 19.31 12.64 20.02 12.64C20.68 12.64 21.48 12.68 21.70 12.68C21.87 12.68 21.90 12.61 21.90 12.40C21.90 12.24 21.87 12.18 21.70 12.18L20.73 12.18C20.64 12.18 20.61 9.55 20.61 7.76L20.61 5.87C20.61 5.14 20.64 3.70 20.73 3.70L21.64 3.70C21.87 3.70 21.90 3.68 21.90 3.49C21.90 3.25 21.87 3.19 21.70 3.19C21.38 3.19 20.71 3.23 20.05 3.23C19.24 3.23 18.52 3.19 18.30 3.19C18.12 3.19 18.05 3.21 18.05 3.44C18.05 3.68 18.13 3.70 18.30 3.70L19.22 3.70C19.26 3.70 19.33 4.79 19.33 5.71L19.33 7.08C19.33 8.92 19.32 12.18 19.21 12.18L18.28 12.18C18.06 12.18 17.99 12.19 17.99 12.39ZM30.00 5.77C30.00 9.07 34.99 8.20 34.99 10.65C34.99 11.59 34.15 12.31 33.17 12.31C32.34 12.31 30.74 11.83 30.72 11.47L30.63 10.15C30.62 9.97 30.55 9.91 30.37 9.91L30.30 9.91C30.09 9.91 30.09 10.00 30.09 10.12C30.09 10.32 30.20 11.66 30.23 12.17C30.24 12.38 31.50 12.85 33.04 12.85C34.61 12.85 36.22 11.87 36.22 10.11C36.22 6.79 31.25 7.87 31.25 5.32C31.25 4.31 32.03 3.56 33.07 3.56C34.09 3.56 35.18 4.58 35.18 4.89C35.18 5.01 35.14 5.73 35.14 5.78C35.14 5.92 35.18 5.99 35.45 5.99C35.69 5.99 35.70 5.94 35.70 5.75C35.70 5.04 35.78 3.68 35.78 3.53C35.78 3.30 35.74 3.29 35.48 3.29C35.25 3.29 35.24 3.32 35.22 3.53C35.22 3.61 35.21 3.78 35.17 3.78C35.11 3.78 35.03 3.74 34.96 3.68C34.16 3.14 33.54 3.08 33.04 3.08C31.51 3.08 30.00 4.17 30.00 5.77ZM44.18 12.39C44.18 12.63 44.21 12.68 44.41 12.68C44.73 12.68 45.70 12.64 46.12 12.64C46.54 12.64 51.04 12.68 51.37 12.68C51.49 12.68 51.65 12.66 51.65 12.49C51.65 12.07 51.69 11.23 51.69 10.53C51.69 10.39 51.53 10.39 51.41 10.39C51.30 10.39 51.17 10.39 51.17 10.51C51.16 11.06 51.16 11.41 51.13 11.76C51.10 12.01 51.10 12.04 51.00 12.04C50.85 12.04 48.22 12.08 46.72 12.08C46.65 12.08 46.61 10.11 46.56 8.26C46.56 8.06 46.61 8.09 46.75 8.09L49.03 8.09C49.73 8.09 49.76 8.20 49.76 8.30L49.76 9.00C49.76 9.14 49.94 9.14 50.05 9.14C50.15 9.14 50.27 9.13 50.27 9.02C50.27 8.83 50.25 8.33 50.25 7.83C50.25 7.32 50.27 6.83 50.27 6.71C50.27 6.59 50.13 6.58 50.04 6.58C49.92 6.58 49.76 6.59 49.76 6.72L49.76 7.45C49.76 7.62 49.31 7.63 49.03 7.63L46.69 7.63C46.58 7.63 46.56 7.63 46.56 7.45C46.55 6.75 46.54 6.06 46.54 5.46C46.54 5.12 46.54 3.71 46.62 3.71C47.85 3.71 50.36 3.75 50.36 3.81C50.36 3.99 50.32 4.83 50.32 4.89C50.32 5.04 50.39 5.10 50.57 5.10C50.76 5.10 50.83 5.08 50.83 4.94C50.83 3.85 50.89 3.36 50.89 3.09C50.89 2.91 50.81 2.90 50.61 2.90C50.41 2.90 50.41 2.95 50.39 3.11C50.37 3.25 50.44 3.25 49.53 3.25C48.92 3.25 46.77 3.29 46.00 3.29C45.51 3.29 44.58 3.25 44.48 3.25C44.35 3.25 44.30 3.30 44.30 3.49C44.30 3.72 44.37 3.74 44.53 3.74L45.19 3.74C45.25 3.74 45.32 4.79 45.32 5.71C45.32 5.80 45.37 8.27 45.37 9.83L45.37 11.17C45.37 11.84 45.35 12.18 45.32 12.18L44.46 12.18C44.24 12.18 44.18 12.21 44.18 12.39ZM63.52 2.13C63.52 2.20 63.55 2.20 63.66 2.20C63.83 2.20 63.81 2.18 63.84 2.09C63.91 1.89 64.01 1.68 64.29 1.68C64.71 1.68 65.00 2.20 65.52 2.20C65.91 2.20 66.22 1.83 66.40 1.36C66.44 1.25 66.50 1.06 66.50 0.95C66.50 0.90 66.40 0.90 66.32 0.90C66.19 0.90 66.21 0.90 66.16 1.02C66.09 1.26 65.95 1.48 65.69 1.48C65.35 1.48 64.92 0.95 64.46 0.95C64.20 0.95 63.85 1.20 63.63 1.75C63.59 1.85 63.52 2.04 63.52 2.13ZM59.65 12.39C59.65 12.63 59.67 12.68 59.86 12.68C60.05 12.68 60.42 12.64 61.04 12.64C61.67 12.64 62.23 12.68 62.55 12.68C62.72 12.68 62.72 12.61 62.72 12.40C62.72 12.24 62.72 12.18 62.55 12.18L61.35 12.18C61.31 12.18 61.29 11.54 61.29 10.79C61.29 9.46 61.31 7.48 61.31 5.99C61.31 5.25 61.31 4.84 61.32 4.28C61.32 4.02 61.39 4.14 61.52 4.28L68.40 12.66C68.49 12.75 68.57 12.89 68.68 12.89C68.80 12.89 68.87 12.77 68.87 12.54C68.87 12.39 69.03 6.65 69.05 4.48C69.05 4.06 69.08 3.70 69.10 3.70L69.73 3.70C69.96 3.70 70.01 3.68 70.01 3.49C70.01 3.25 70.01 3.19 69.82 3.19C69.62 3.19 69.19 3.23 68.63 3.23C68.01 3.23 67.21 3.19 67.12 3.19C66.95 3.19 66.95 3.26 66.95 3.47C66.95 3.64 66.95 3.70 67.12 3.70L68.42 3.70C68.43 3.70 68.43 4.33 68.43 4.44C68.43 5.85 68.46 8.33 68.46 9.70L68.46 10.29C68.46 10.57 68.45 10.65 68.22 10.37L62.54 3.39C62.43 3.25 62.40 3.19 62.23 3.19C62.15 3.19 61.77 3.23 61.46 3.23C61.17 3.23 60.09 3.19 59.89 3.19C59.72 3.19 59.70 3.26 59.70 3.47C59.70 3.64 59.72 3.70 59.89 3.70L60.80 3.70C60.80 4.17 60.76 8.53 60.69 10.79C60.66 11.69 60.68 12.18 60.56 12.18L59.92 12.18C59.70 12.18 59.65 12.19 59.65 12.39ZM77.91 12.39C77.91 12.63 77.91 12.68 78.11 12.68C78.27 12.68 78.60 12.64 79.17 12.64C79.79 12.64 80.33 12.68 80.49 12.68C80.65 12.68 80.65 12.61 80.65 12.40C80.65 12.24 80.65 12.18 80.49 12.18L79.41 12.18C79.41 12.18 79.39 12.18 79.39 12.17C79.41 11.87 80.18 9.90 80.53 9.02C80.60 8.83 80.61 8.79 80.82 8.79L83.65 8.79C83.79 8.79 83.79 8.81 83.86 9.03C84.13 9.77 84.84 11.89 84.84 12.17C84.84 12.18 84.83 12.18 84.83 12.18L84.06 12.18C83.83 12.18 83.82 12.19 83.82 12.39C83.82 12.63 83.83 12.68 84.00 12.68C84.32 12.68 85.19 12.64 85.61 12.64C86.03 12.64 86.70 12.68 86.91 12.68C87.05 12.68 87.07 12.61 87.07 12.40C87.07 12.24 87.05 12.18 86.91 12.18L86.42 12.18C86.32 12.18 85.30 9.34 84.74 7.78L83.06 3.07C83.05 3.00 82.98 2.94 82.89 2.94C82.77 2.94 82.67 3.16 82.59 3.35C82.43 3.71 82.19 3.84 82.08 4.13L80.60 7.57C80.42 8.01 78.71 12.18 78.58 12.18L78.16 12.18C77.94 12.18 77.91 12.19 77.91 12.39ZM80.81 8.33C80.81 8.30 80.84 8.23 80.88 8.13L82.25 4.77C82.29 4.66 82.32 4.61 82.35 4.61C82.36 4.61 82.38 4.63 82.42 4.77L83.58 8.18C83.61 8.25 83.62 8.29 83.62 8.32C83.62 8.36 83.59 8.37 83.50 8.37L80.99 8.37C80.81 8.37 80.81 8.34 80.81 8.33ZM94.75 12.46C94.75 12.63 94.77 12.70 94.95 12.70C95.10 12.70 96.33 12.64 96.73 12.64C97.58 12.64 98.46 12.70 99.32 12.70C101.93 12.70 104.33 11.07 104.33 7.91C104.33 4.89 101.99 3.07 98.95 3.07C98.39 3.07 97.13 3.23 96.10 3.23C95.62 3.23 95.16 3.22 95.10 3.22C94.92 3.22 94.91 3.32 94.91 3.49C94.91 3.68 94.98 3.70 95.10 3.70L96.07 3.67C96.10 3.67 96.10 4.20 96.10 4.72C96.10 5.91 96.01 12.21 95.93 12.21L95.03 12.21C94.85 12.21 94.75 12.22 94.75 12.46ZM97.33 11.40C97.33 9.46 97.33 7.52 97.34 5.60C97.34 5.03 97.38 3.61 97.43 3.60C97.72 3.53 98.31 3.51 98.66 3.51C101.22 3.51 102.83 5.75 102.83 7.73C102.83 8.95 102.79 12.25 98.11 12.25C97.85 12.25 97.44 12.25 97.34 12.21C97.33 12.19 97.33 11.79 97.33 11.40ZM112.50 8.15C112.50 11.17 114.84 12.80 117.10 12.80C119.88 12.80 121.86 10.89 121.86 8.06C121.86 5.33 120.11 3.11 117.31 3.11C114.70 3.11 112.50 5.10 112.50 8.15ZM113.90 7.77C113.90 5.64 115.19 3.58 117.17 3.58C119.41 3.58 120.48 5.81 120.48 7.94C120.48 10.08 119.38 12.32 117.11 12.32C115.12 12.32 113.90 10.28 113.90 7.77ZM129.96 3.51C129.96 3.72 130.03 3.79 130.23 3.79L131.04 3.77C131.14 3.77 131.18 6.61 131.18 8.55L131.18 10.42C131.18 11.30 131.17 12.18 131.12 12.18L130.52 12.18C130.30 12.18 130.23 12.19 130.23 12.39C130.23 12.63 130.27 12.68 130.47 12.68C130.59 12.68 131.42 12.64 131.84 12.64C132.26 12.64 133.03 12.68 133.35 12.68C133.52 12.68 133.55 12.61 133.55 12.40C133.55 12.24 133.52 12.18 133.35 12.18L132.54 12.18C132.47 12.18 132.38 9.18 132.38 8.37C132.38 8.30 132.38 8.26 132.50 8.26C132.89 8.26 133.49 8.27 133.78 8.27C136.02 8.32 136.16 10.00 136.16 11.68L136.16 12.49C136.16 12.61 136.22 12.64 136.32 12.64C136.32 12.64 137.76 12.68 138.24 12.68C138.40 12.68 138.46 12.64 138.46 12.53C138.46 12.24 138.40 12.18 138.25 12.18L137.61 12.18C137.51 12.18 137.48 12.14 137.45 11.31C137.37 8.99 136.00 8.34 135.09 8.05C134.95 8.01 134.97 8.01 135.09 7.95C135.67 7.69 136.99 6.94 136.99 5.63C136.99 3.63 135.30 3.21 133.90 3.21C133.57 3.21 132.29 3.29 131.87 3.29C131.45 3.29 130.47 3.26 130.24 3.26C130.06 3.26 129.96 3.28 129.96 3.51ZM132.38 7.80L132.38 4.40C132.38 4.05 132.41 3.68 132.45 3.68C132.66 3.65 132.94 3.65 133.17 3.65C134.47 3.65 135.72 4.47 135.72 5.82C135.72 6.99 135.17 7.57 134.51 7.88C134.47 7.90 134.43 7.90 134.36 7.90C133.88 7.88 133.17 7.88 132.57 7.87C132.40 7.87 132.38 7.85 132.38 7.80ZM155.74 3.51C155.74 3.75 155.82 3.77 155.99 3.77L156.52 3.77C156.58 3.77 156.58 4.12 156.58 4.55C156.58 5.66 156.56 8.96 156.56 9.42C156.56 11.13 156.81 12.80 159.67 12.80C160.75 12.80 161.91 12.38 162.57 12.00C162.82 11.86 163.11 11.72 163.20 11.72C163.46 11.72 163.73 12.74 164.07 12.74C164.39 12.74 164.40 12.35 164.40 12.25C164.40 11.96 164.46 10.08 164.50 8.16C164.56 6.12 164.54 3.77 164.65 3.77L164.98 3.77C165.20 3.77 165.27 3.75 165.27 3.56C165.27 3.32 165.23 3.26 165.03 3.26C164.89 3.26 164.36 3.30 163.94 3.30C163.52 3.30 162.72 3.26 162.50 3.26C162.32 3.26 162.22 3.28 162.22 3.51C162.22 3.75 162.33 3.77 162.50 3.77L163.20 3.77C163.27 3.77 163.28 4.30 163.28 4.87L163.28 9.14C163.28 11.19 163.28 11.12 162.95 11.34C162.55 11.61 161.74 12.08 160.57 12.08C158.59 12.08 157.79 11.17 157.79 9.41C157.79 8.82 157.86 3.77 157.98 3.77L158.89 3.77C159.11 3.77 159.15 3.75 159.15 3.56C159.15 3.32 159.14 3.26 158.94 3.26C158.62 3.26 157.74 3.30 157.32 3.30C156.90 3.30 156.21 3.26 155.99 3.26C155.81 3.26 155.74 3.28 155.74 3.51ZM172.89 12.43C172.89 12.66 172.97 12.68 173.15 12.68C173.38 12.68 173.89 12.64 174.31 12.64C174.73 12.64 175.15 12.68 175.48 12.68C175.67 12.68 175.71 12.63 175.71 12.39C175.71 12.19 175.64 12.18 175.42 12.18L174.65 12.18C174.48 12.18 174.55 12.11 174.68 11.90C175.21 11.03 176.55 9.09 176.96 8.51C177.00 8.44 177.03 8.46 177.07 8.53C177.60 9.42 178.74 11.30 179.10 12.03C179.17 12.14 179.16 12.18 179.03 12.18L178.33 12.18C178.11 12.18 178.04 12.19 178.04 12.39C178.04 12.63 178.08 12.68 178.28 12.68C178.60 12.68 179.48 12.64 179.90 12.64C180.32 12.64 181.13 12.68 181.36 12.68C181.58 12.68 181.62 12.67 181.62 12.43C181.62 12.19 181.59 12.18 181.33 12.18L180.85 12.18C180.77 12.18 178.32 8.32 177.88 7.63C177.86 7.59 177.84 7.53 177.88 7.48C178.16 7.06 179.17 5.78 180.00 4.59C180.31 4.14 180.61 3.77 180.66 3.77L180.98 3.77C181.15 3.77 181.24 3.75 181.24 3.51C181.24 3.29 181.16 3.26 180.98 3.26C180.75 3.26 180.33 3.30 179.91 3.30C179.41 3.30 179.05 3.26 178.82 3.26C178.63 3.26 178.58 3.32 178.58 3.56C178.58 3.75 178.65 3.77 178.88 3.77L179.66 3.77L179.66 3.78C179.66 3.99 179.24 4.68 178.78 5.36C178.65 5.56 177.90 6.72 177.63 7.10C177.60 7.14 177.59 7.15 177.58 7.15C177.55 7.15 177.49 7.04 177.45 6.99C176.99 6.17 176.11 4.61 175.83 3.92C175.78 3.81 175.73 3.77 175.90 3.77L176.47 3.77C176.69 3.77 176.76 3.75 176.76 3.56C176.76 3.32 176.75 3.26 176.55 3.26C176.23 3.26 175.59 3.30 175.17 3.30C174.75 3.30 173.73 3.26 173.50 3.26C173.32 3.26 173.24 3.28 173.24 3.51C173.24 3.75 173.35 3.77 173.52 3.77L174.06 3.77C174.15 3.77 176.47 7.56 176.68 7.91C176.75 8.01 176.76 8.05 176.69 8.15C176.02 9.02 175.29 9.88 174.68 10.79C174.17 11.52 173.74 12.18 173.67 12.18L173.15 12.18C172.98 12.18 172.89 12.19 172.89 12.43Z"></path></g></svg>